<mxfile host="app.diagrams.net" agent="Mozilla/5.0 (Macintosh; Intel Mac OS X 10.15; rv:138.0) Gecko/20100101 Firefox/138.0" version="27.0.4" pages="6">
  <diagram name="node.Artist" id="mtRTsLWoyq1FAcI0u9YB">
    <mxGraphModel dx="2386" dy="1319" grid="1" gridSize="10" guides="1" tooltips="1" connect="1" arrows="1" fold="1" page="0" pageScale="1" pageWidth="827" pageHeight="1169" math="0" shadow="0">
      <root>
        <mxCell id="0" />
        <mxCell id="1" parent="0" />
        <mxCell id="n9ixTQ6DiQ4oEq_hwf-k-1" value="&lt;div&gt;&lt;br&gt;&lt;/div&gt;&lt;div&gt;&lt;br&gt;&lt;/div&gt;&lt;div&gt;The&amp;nbsp;&lt;/div&gt;&lt;div&gt;Beatles&lt;/div&gt;" style="ellipse;whiteSpace=wrap;html=1;aspect=fixed;" parent="1" vertex="1">
          <mxGeometry x="-1280" y="-740" width="70" height="70" as="geometry" />
        </mxCell>
        <mxCell id="n9ixTQ6DiQ4oEq_hwf-k-2" value="&lt;font style=&quot;font-size: 12px;&quot;&gt;1&lt;/font&gt;" style="ellipse;whiteSpace=wrap;html=1;aspect=fixed;" parent="1" vertex="1">
          <mxGeometry x="-1260" y="-740" width="30" height="30" as="geometry" />
        </mxCell>
        <mxCell id="n9ixTQ6DiQ4oEq_hwf-k-3" value="&lt;div&gt;&lt;br&gt;&lt;/div&gt;&lt;div&gt;&lt;br&gt;&lt;/div&gt;&lt;div&gt;Pink&lt;/div&gt;&lt;div&gt;Floyd&lt;/div&gt;" style="ellipse;whiteSpace=wrap;html=1;aspect=fixed;" parent="1" vertex="1">
          <mxGeometry x="-1170" y="-740" width="70" height="70" as="geometry" />
        </mxCell>
        <mxCell id="n9ixTQ6DiQ4oEq_hwf-k-4" value="&lt;font style=&quot;font-size: 12px;&quot;&gt;2&lt;/font&gt;" style="ellipse;whiteSpace=wrap;html=1;aspect=fixed;" parent="1" vertex="1">
          <mxGeometry x="-1150" y="-740" width="30" height="30" as="geometry" />
        </mxCell>
        <mxCell id="n9ixTQ6DiQ4oEq_hwf-k-5" value="&lt;div&gt;&lt;br&gt;&lt;/div&gt;&lt;div&gt;&lt;br&gt;&lt;/div&gt;&lt;div&gt;Led Zeppelin&lt;/div&gt;" style="ellipse;whiteSpace=wrap;html=1;aspect=fixed;" parent="1" vertex="1">
          <mxGeometry x="-1055" y="-740" width="70" height="70" as="geometry" />
        </mxCell>
        <mxCell id="n9ixTQ6DiQ4oEq_hwf-k-6" value="&lt;font style=&quot;font-size: 12px;&quot;&gt;3&lt;/font&gt;" style="ellipse;whiteSpace=wrap;html=1;aspect=fixed;" parent="1" vertex="1">
          <mxGeometry x="-1035" y="-740" width="30" height="30" as="geometry" />
        </mxCell>
        <mxCell id="n9ixTQ6DiQ4oEq_hwf-k-7" value="&lt;div&gt;&lt;br&gt;&lt;/div&gt;&lt;div&gt;Qeen&lt;/div&gt;" style="ellipse;whiteSpace=wrap;html=1;aspect=fixed;" parent="1" vertex="1">
          <mxGeometry x="-935" y="-740" width="70" height="70" as="geometry" />
        </mxCell>
        <mxCell id="n9ixTQ6DiQ4oEq_hwf-k-8" value="&lt;font style=&quot;font-size: 12px;&quot;&gt;4&lt;/font&gt;" style="ellipse;whiteSpace=wrap;html=1;aspect=fixed;" parent="1" vertex="1">
          <mxGeometry x="-915" y="-740" width="30" height="30" as="geometry" />
        </mxCell>
        <mxCell id="n9ixTQ6DiQ4oEq_hwf-k-9" value="&lt;div&gt;&lt;br&gt;&lt;/div&gt;&lt;div&gt;Mettalica&lt;/div&gt;" style="ellipse;whiteSpace=wrap;html=1;aspect=fixed;" parent="1" vertex="1">
          <mxGeometry x="-825" y="-740" width="70" height="70" as="geometry" />
        </mxCell>
        <mxCell id="n9ixTQ6DiQ4oEq_hwf-k-10" value="&lt;font style=&quot;font-size: 12px;&quot;&gt;5&lt;/font&gt;" style="ellipse;whiteSpace=wrap;html=1;aspect=fixed;" parent="1" vertex="1">
          <mxGeometry x="-805" y="-740" width="30" height="30" as="geometry" />
        </mxCell>
        <mxCell id="n9ixTQ6DiQ4oEq_hwf-k-11" value="&lt;div&gt;&lt;br&gt;&lt;/div&gt;&lt;div&gt;Nirvana&lt;/div&gt;" style="ellipse;whiteSpace=wrap;html=1;aspect=fixed;" parent="1" vertex="1">
          <mxGeometry x="-1280" y="-640" width="70" height="70" as="geometry" />
        </mxCell>
        <mxCell id="n9ixTQ6DiQ4oEq_hwf-k-12" value="&lt;font style=&quot;font-size: 12px;&quot;&gt;6&lt;/font&gt;" style="ellipse;whiteSpace=wrap;html=1;aspect=fixed;" parent="1" vertex="1">
          <mxGeometry x="-1260" y="-640" width="30" height="30" as="geometry" />
        </mxCell>
        <mxCell id="n9ixTQ6DiQ4oEq_hwf-k-13" value="&lt;div&gt;&lt;br&gt;&lt;/div&gt;&lt;div&gt;Radiohead&lt;/div&gt;" style="ellipse;whiteSpace=wrap;html=1;aspect=fixed;" parent="1" vertex="1">
          <mxGeometry x="-1170" y="-640" width="70" height="70" as="geometry" />
        </mxCell>
        <mxCell id="n9ixTQ6DiQ4oEq_hwf-k-14" value="&lt;font style=&quot;font-size: 12px;&quot;&gt;7&lt;/font&gt;" style="ellipse;whiteSpace=wrap;html=1;aspect=fixed;" parent="1" vertex="1">
          <mxGeometry x="-1150" y="-640" width="30" height="30" as="geometry" />
        </mxCell>
        <mxCell id="n9ixTQ6DiQ4oEq_hwf-k-15" value="&lt;div&gt;&lt;br&gt;&lt;/div&gt;&lt;div&gt;&lt;br&gt;&lt;/div&gt;&lt;div&gt;David&lt;/div&gt;&lt;div&gt;Bowie&lt;/div&gt;" style="ellipse;whiteSpace=wrap;html=1;aspect=fixed;" parent="1" vertex="1">
          <mxGeometry x="-1055" y="-640" width="70" height="70" as="geometry" />
        </mxCell>
        <mxCell id="n9ixTQ6DiQ4oEq_hwf-k-16" value="&lt;font style=&quot;font-size: 12px;&quot;&gt;8&lt;/font&gt;" style="ellipse;whiteSpace=wrap;html=1;aspect=fixed;" parent="1" vertex="1">
          <mxGeometry x="-1035" y="-640" width="30" height="30" as="geometry" />
        </mxCell>
        <mxCell id="n9ixTQ6DiQ4oEq_hwf-k-17" value="&lt;div&gt;&lt;br&gt;&lt;/div&gt;&lt;div&gt;&lt;br&gt;&lt;/div&gt;&lt;div&gt;Michael&lt;/div&gt;&lt;div&gt;Jackson&lt;/div&gt;" style="ellipse;whiteSpace=wrap;html=1;aspect=fixed;" parent="1" vertex="1">
          <mxGeometry x="-935" y="-640" width="70" height="70" as="geometry" />
        </mxCell>
        <mxCell id="n9ixTQ6DiQ4oEq_hwf-k-18" value="&lt;font style=&quot;font-size: 12px;&quot;&gt;9&lt;/font&gt;" style="ellipse;whiteSpace=wrap;html=1;aspect=fixed;" parent="1" vertex="1">
          <mxGeometry x="-915" y="-640" width="30" height="30" as="geometry" />
        </mxCell>
        <mxCell id="n9ixTQ6DiQ4oEq_hwf-k-19" value="&lt;div&gt;&lt;br&gt;&lt;/div&gt;&lt;div&gt;Maddona&lt;/div&gt;" style="ellipse;whiteSpace=wrap;html=1;aspect=fixed;" parent="1" vertex="1">
          <mxGeometry x="-825" y="-640" width="70" height="70" as="geometry" />
        </mxCell>
        <mxCell id="n9ixTQ6DiQ4oEq_hwf-k-20" value="&lt;font style=&quot;font-size: 12px;&quot;&gt;10&lt;/font&gt;" style="ellipse;whiteSpace=wrap;html=1;aspect=fixed;" parent="1" vertex="1">
          <mxGeometry x="-805" y="-640" width="30" height="30" as="geometry" />
        </mxCell>
        <mxCell id="n9ixTQ6DiQ4oEq_hwf-k-31" value="&lt;div&gt;&lt;br&gt;&lt;/div&gt;&lt;div&gt;&lt;br&gt;&lt;/div&gt;&lt;div&gt;Elton&lt;/div&gt;&lt;div&gt;Jhon&lt;/div&gt;" style="ellipse;whiteSpace=wrap;html=1;aspect=fixed;" parent="1" vertex="1">
          <mxGeometry x="-1280" y="-540" width="70" height="70" as="geometry" />
        </mxCell>
        <mxCell id="n9ixTQ6DiQ4oEq_hwf-k-32" value="&lt;font style=&quot;font-size: 12px;&quot;&gt;11&lt;/font&gt;" style="ellipse;whiteSpace=wrap;html=1;aspect=fixed;" parent="1" vertex="1">
          <mxGeometry x="-1260" y="-540" width="30" height="30" as="geometry" />
        </mxCell>
        <mxCell id="n9ixTQ6DiQ4oEq_hwf-k-33" value="&lt;div&gt;&lt;br&gt;&lt;/div&gt;&lt;div&gt;Eminem&lt;/div&gt;" style="ellipse;whiteSpace=wrap;html=1;aspect=fixed;" parent="1" vertex="1">
          <mxGeometry x="-1170" y="-540" width="70" height="70" as="geometry" />
        </mxCell>
        <mxCell id="n9ixTQ6DiQ4oEq_hwf-k-34" value="&lt;font style=&quot;font-size: 12px;&quot;&gt;12&lt;/font&gt;" style="ellipse;whiteSpace=wrap;html=1;aspect=fixed;" parent="1" vertex="1">
          <mxGeometry x="-1150" y="-540" width="30" height="30" as="geometry" />
        </mxCell>
      </root>
    </mxGraphModel>
  </diagram>
  <diagram id="RMlNECfj15LKxKKsDek4" name="node.Album">
    <mxGraphModel dx="1209" dy="798" grid="1" gridSize="10" guides="1" tooltips="1" connect="1" arrows="1" fold="1" page="1" pageScale="1" pageWidth="827" pageHeight="1169" math="0" shadow="0">
      <root>
        <mxCell id="0" />
        <mxCell id="1" parent="0" />
        <mxCell id="mAG-xOn-QCstEYM56f-M-1" value="Abbey Road" style="rounded=0;whiteSpace=wrap;html=1;" parent="1" vertex="1">
          <mxGeometry x="100" y="80" width="120" height="60" as="geometry" />
        </mxCell>
        <mxCell id="mAG-xOn-QCstEYM56f-M-2" value="1" style="rounded=0;whiteSpace=wrap;html=1;" parent="1" vertex="1">
          <mxGeometry x="135" y="80" width="50" height="20" as="geometry" />
        </mxCell>
        <mxCell id="mAG-xOn-QCstEYM56f-M-5" value="&lt;div&gt;&lt;br&gt;&lt;/div&gt;&lt;div&gt;The Dark Side of the Moon&lt;/div&gt;" style="rounded=0;whiteSpace=wrap;html=1;" parent="1" vertex="1">
          <mxGeometry x="280" y="80" width="120" height="60" as="geometry" />
        </mxCell>
        <mxCell id="mAG-xOn-QCstEYM56f-M-6" value="2" style="rounded=0;whiteSpace=wrap;html=1;" parent="1" vertex="1">
          <mxGeometry x="315" y="80" width="50" height="20" as="geometry" />
        </mxCell>
        <mxCell id="mAG-xOn-QCstEYM56f-M-7" value="Led Zeppelin IV" style="rounded=0;whiteSpace=wrap;html=1;" parent="1" vertex="1">
          <mxGeometry x="460" y="80" width="120" height="60" as="geometry" />
        </mxCell>
        <mxCell id="mAG-xOn-QCstEYM56f-M-8" value="3" style="rounded=0;whiteSpace=wrap;html=1;" parent="1" vertex="1">
          <mxGeometry x="495" y="80" width="50" height="20" as="geometry" />
        </mxCell>
        <mxCell id="mAG-xOn-QCstEYM56f-M-9" value="A night at the Opera" style="rounded=0;whiteSpace=wrap;html=1;" parent="1" vertex="1">
          <mxGeometry x="640" y="80" width="120" height="60" as="geometry" />
        </mxCell>
        <mxCell id="mAG-xOn-QCstEYM56f-M-10" value="4" style="rounded=0;whiteSpace=wrap;html=1;" parent="1" vertex="1">
          <mxGeometry x="675" y="80" width="50" height="20" as="geometry" />
        </mxCell>
        <mxCell id="mAG-xOn-QCstEYM56f-M-11" value="Master of Puppets" style="rounded=0;whiteSpace=wrap;html=1;" parent="1" vertex="1">
          <mxGeometry x="827" y="80" width="120" height="60" as="geometry" />
        </mxCell>
        <mxCell id="mAG-xOn-QCstEYM56f-M-12" value="5" style="rounded=0;whiteSpace=wrap;html=1;" parent="1" vertex="1">
          <mxGeometry x="862" y="80" width="50" height="20" as="geometry" />
        </mxCell>
        <mxCell id="mAG-xOn-QCstEYM56f-M-13" value="Nevermind" style="rounded=0;whiteSpace=wrap;html=1;" parent="1" vertex="1">
          <mxGeometry x="100" y="190" width="120" height="60" as="geometry" />
        </mxCell>
        <mxCell id="mAG-xOn-QCstEYM56f-M-14" value="6" style="rounded=0;whiteSpace=wrap;html=1;" parent="1" vertex="1">
          <mxGeometry x="135" y="190" width="50" height="20" as="geometry" />
        </mxCell>
        <mxCell id="mAG-xOn-QCstEYM56f-M-15" value="OK Computer" style="rounded=0;whiteSpace=wrap;html=1;" parent="1" vertex="1">
          <mxGeometry x="280" y="190" width="120" height="60" as="geometry" />
        </mxCell>
        <mxCell id="mAG-xOn-QCstEYM56f-M-16" value="7" style="rounded=0;whiteSpace=wrap;html=1;" parent="1" vertex="1">
          <mxGeometry x="315" y="190" width="50" height="20" as="geometry" />
        </mxCell>
        <mxCell id="mAG-xOn-QCstEYM56f-M-17" value="&lt;div&gt;&lt;br&gt;&lt;/div&gt;&lt;div&gt;The Rise and Fall of Ziggy Stardust&lt;/div&gt;" style="rounded=0;whiteSpace=wrap;html=1;" parent="1" vertex="1">
          <mxGeometry x="460" y="190" width="120" height="60" as="geometry" />
        </mxCell>
        <mxCell id="mAG-xOn-QCstEYM56f-M-18" value="8" style="rounded=0;whiteSpace=wrap;html=1;" parent="1" vertex="1">
          <mxGeometry x="495" y="190" width="50" height="20" as="geometry" />
        </mxCell>
        <mxCell id="mAG-xOn-QCstEYM56f-M-19" value="&lt;div&gt;Thriller&lt;/div&gt;" style="rounded=0;whiteSpace=wrap;html=1;" parent="1" vertex="1">
          <mxGeometry x="640" y="190" width="120" height="60" as="geometry" />
        </mxCell>
        <mxCell id="mAG-xOn-QCstEYM56f-M-20" value="9" style="rounded=0;whiteSpace=wrap;html=1;" parent="1" vertex="1">
          <mxGeometry x="675" y="190" width="50" height="20" as="geometry" />
        </mxCell>
        <mxCell id="mAG-xOn-QCstEYM56f-M-21" value="&lt;div&gt;Like a Virgin&lt;/div&gt;" style="rounded=0;whiteSpace=wrap;html=1;" parent="1" vertex="1">
          <mxGeometry x="827" y="190" width="120" height="60" as="geometry" />
        </mxCell>
        <mxCell id="mAG-xOn-QCstEYM56f-M-22" value="10" style="rounded=0;whiteSpace=wrap;html=1;" parent="1" vertex="1">
          <mxGeometry x="862" y="190" width="50" height="20" as="geometry" />
        </mxCell>
        <mxCell id="CA0UK-d6meiWt04aQ1Di-1" value="&lt;div&gt;&lt;br&gt;&lt;/div&gt;&lt;div&gt;Goodbye Yellow&amp;nbsp;&lt;/div&gt;&lt;div&gt;Brick Road&lt;/div&gt;" style="rounded=0;whiteSpace=wrap;html=1;" vertex="1" parent="1">
          <mxGeometry x="100" y="300" width="120" height="60" as="geometry" />
        </mxCell>
        <mxCell id="CA0UK-d6meiWt04aQ1Di-2" value="11" style="rounded=0;whiteSpace=wrap;html=1;" vertex="1" parent="1">
          <mxGeometry x="135" y="300" width="50" height="20" as="geometry" />
        </mxCell>
        <mxCell id="CA0UK-d6meiWt04aQ1Di-3" value="&lt;div&gt;&lt;br&gt;&lt;/div&gt;&lt;div&gt;The Marshall&amp;nbsp;&lt;/div&gt;&lt;div&gt;Mathers LP&lt;/div&gt;" style="rounded=0;whiteSpace=wrap;html=1;" vertex="1" parent="1">
          <mxGeometry x="280" y="300" width="120" height="60" as="geometry" />
        </mxCell>
        <mxCell id="CA0UK-d6meiWt04aQ1Di-4" value="12" style="rounded=0;whiteSpace=wrap;html=1;" vertex="1" parent="1">
          <mxGeometry x="315" y="300" width="50" height="20" as="geometry" />
        </mxCell>
      </root>
    </mxGraphModel>
  </diagram>
  <diagram id="E5cKeu-Ln5tWZLkobFmc" name="node.Genre">
    <mxGraphModel dx="1310" dy="865" grid="1" gridSize="10" guides="1" tooltips="1" connect="1" arrows="1" fold="1" page="1" pageScale="1" pageWidth="827" pageHeight="1169" math="0" shadow="0">
      <root>
        <mxCell id="0" />
        <mxCell id="1" parent="0" />
        <mxCell id="3iETErLrnHmKr_ULb4zi-1" value="Rock" style="shape=hexagon;perimeter=hexagonPerimeter2;whiteSpace=wrap;html=1;fixedSize=1;" parent="1" vertex="1">
          <mxGeometry x="170" y="40" width="120" height="80" as="geometry" />
        </mxCell>
        <mxCell id="3iETErLrnHmKr_ULb4zi-2" value="1" style="shape=hexagon;perimeter=hexagonPerimeter2;whiteSpace=wrap;html=1;fixedSize=1;" parent="1" vertex="1">
          <mxGeometry x="205" y="40" width="50" height="20" as="geometry" />
        </mxCell>
        <mxCell id="3iETErLrnHmKr_ULb4zi-3" value="Progressive Rock" style="shape=hexagon;perimeter=hexagonPerimeter2;whiteSpace=wrap;html=1;fixedSize=1;" parent="1" vertex="1">
          <mxGeometry x="330" y="40" width="120" height="80" as="geometry" />
        </mxCell>
        <mxCell id="3iETErLrnHmKr_ULb4zi-4" value="2" style="shape=hexagon;perimeter=hexagonPerimeter2;whiteSpace=wrap;html=1;fixedSize=1;" parent="1" vertex="1">
          <mxGeometry x="365" y="40" width="50" height="20" as="geometry" />
        </mxCell>
        <mxCell id="3iETErLrnHmKr_ULb4zi-5" value="Heavy Metal" style="shape=hexagon;perimeter=hexagonPerimeter2;whiteSpace=wrap;html=1;fixedSize=1;" parent="1" vertex="1">
          <mxGeometry x="490" y="40" width="120" height="80" as="geometry" />
        </mxCell>
        <mxCell id="3iETErLrnHmKr_ULb4zi-6" value="3" style="shape=hexagon;perimeter=hexagonPerimeter2;whiteSpace=wrap;html=1;fixedSize=1;" parent="1" vertex="1">
          <mxGeometry x="525" y="40" width="50" height="20" as="geometry" />
        </mxCell>
        <mxCell id="3iETErLrnHmKr_ULb4zi-7" value="Grunge" style="shape=hexagon;perimeter=hexagonPerimeter2;whiteSpace=wrap;html=1;fixedSize=1;" parent="1" vertex="1">
          <mxGeometry x="650" y="40" width="120" height="80" as="geometry" />
        </mxCell>
        <mxCell id="3iETErLrnHmKr_ULb4zi-8" value="4" style="shape=hexagon;perimeter=hexagonPerimeter2;whiteSpace=wrap;html=1;fixedSize=1;" parent="1" vertex="1">
          <mxGeometry x="685" y="40" width="50" height="20" as="geometry" />
        </mxCell>
        <mxCell id="3iETErLrnHmKr_ULb4zi-9" value="Alternative Rock" style="shape=hexagon;perimeter=hexagonPerimeter2;whiteSpace=wrap;html=1;fixedSize=1;" parent="1" vertex="1">
          <mxGeometry x="170" y="180" width="120" height="80" as="geometry" />
        </mxCell>
        <mxCell id="3iETErLrnHmKr_ULb4zi-10" value="5" style="shape=hexagon;perimeter=hexagonPerimeter2;whiteSpace=wrap;html=1;fixedSize=1;" parent="1" vertex="1">
          <mxGeometry x="205" y="180" width="50" height="20" as="geometry" />
        </mxCell>
        <mxCell id="3iETErLrnHmKr_ULb4zi-11" value="Pop" style="shape=hexagon;perimeter=hexagonPerimeter2;whiteSpace=wrap;html=1;fixedSize=1;" parent="1" vertex="1">
          <mxGeometry x="330" y="180" width="120" height="80" as="geometry" />
        </mxCell>
        <mxCell id="3iETErLrnHmKr_ULb4zi-12" value="6" style="shape=hexagon;perimeter=hexagonPerimeter2;whiteSpace=wrap;html=1;fixedSize=1;" parent="1" vertex="1">
          <mxGeometry x="365" y="180" width="50" height="20" as="geometry" />
        </mxCell>
        <mxCell id="3iETErLrnHmKr_ULb4zi-13" value="Hip Hop" style="shape=hexagon;perimeter=hexagonPerimeter2;whiteSpace=wrap;html=1;fixedSize=1;" parent="1" vertex="1">
          <mxGeometry x="490" y="180" width="120" height="80" as="geometry" />
        </mxCell>
        <mxCell id="3iETErLrnHmKr_ULb4zi-14" value="7" style="shape=hexagon;perimeter=hexagonPerimeter2;whiteSpace=wrap;html=1;fixedSize=1;" parent="1" vertex="1">
          <mxGeometry x="525" y="180" width="50" height="20" as="geometry" />
        </mxCell>
        <mxCell id="3iETErLrnHmKr_ULb4zi-15" value="Glap Rock" style="shape=hexagon;perimeter=hexagonPerimeter2;whiteSpace=wrap;html=1;fixedSize=1;" parent="1" vertex="1">
          <mxGeometry x="650" y="180" width="120" height="80" as="geometry" />
        </mxCell>
        <mxCell id="3iETErLrnHmKr_ULb4zi-16" value="8" style="shape=hexagon;perimeter=hexagonPerimeter2;whiteSpace=wrap;html=1;fixedSize=1;" parent="1" vertex="1">
          <mxGeometry x="685" y="180" width="50" height="20" as="geometry" />
        </mxCell>
      </root>
    </mxGraphModel>
  </diagram>
  <diagram id="jV6iIh_NrJCeOhy-KTGD" name="edge.Created">
    <mxGraphModel dx="3619" dy="2467" grid="1" gridSize="10" guides="1" tooltips="1" connect="1" arrows="1" fold="1" page="1" pageScale="1" pageWidth="827" pageHeight="1169" math="0" shadow="0">
      <root>
        <mxCell id="0" />
        <mxCell id="1" parent="0" />
        <mxCell id="5HFoHFpW_PpsOGJbvyMc-1" style="edgeStyle=orthogonalEdgeStyle;rounded=0;orthogonalLoop=1;jettySize=auto;html=1;exitX=0.5;exitY=1;exitDx=0;exitDy=0;entryX=0.5;entryY=0;entryDx=0;entryDy=0;" edge="1" parent="1" source="otmdc9xM4TCSabEPH5Tj-1" target="9puG_qDbohNOItTrVRc8-2">
          <mxGeometry relative="1" as="geometry" />
        </mxCell>
        <mxCell id="otmdc9xM4TCSabEPH5Tj-1" value="&lt;div&gt;&lt;br&gt;&lt;/div&gt;&lt;div&gt;&lt;br&gt;&lt;/div&gt;&lt;div&gt;The&amp;nbsp;&lt;/div&gt;&lt;div&gt;Beatles&lt;/div&gt;" style="ellipse;whiteSpace=wrap;html=1;aspect=fixed;" vertex="1" parent="1">
          <mxGeometry x="-1075" y="-1140" width="70" height="70" as="geometry" />
        </mxCell>
        <mxCell id="otmdc9xM4TCSabEPH5Tj-2" value="&lt;font style=&quot;font-size: 12px;&quot;&gt;1&lt;/font&gt;" style="ellipse;whiteSpace=wrap;html=1;aspect=fixed;" vertex="1" parent="1">
          <mxGeometry x="-1055" y="-1140" width="30" height="30" as="geometry" />
        </mxCell>
        <mxCell id="5HFoHFpW_PpsOGJbvyMc-3" style="edgeStyle=orthogonalEdgeStyle;rounded=0;orthogonalLoop=1;jettySize=auto;html=1;exitX=0.5;exitY=1;exitDx=0;exitDy=0;entryX=0.5;entryY=0;entryDx=0;entryDy=0;" edge="1" parent="1" source="otmdc9xM4TCSabEPH5Tj-3" target="9puG_qDbohNOItTrVRc8-4">
          <mxGeometry relative="1" as="geometry" />
        </mxCell>
        <mxCell id="otmdc9xM4TCSabEPH5Tj-3" value="&lt;div&gt;&lt;br&gt;&lt;/div&gt;&lt;div&gt;&lt;br&gt;&lt;/div&gt;&lt;div&gt;Pink&lt;/div&gt;&lt;div&gt;Floyd&lt;/div&gt;" style="ellipse;whiteSpace=wrap;html=1;aspect=fixed;" vertex="1" parent="1">
          <mxGeometry x="-895" y="-1140" width="70" height="70" as="geometry" />
        </mxCell>
        <mxCell id="otmdc9xM4TCSabEPH5Tj-4" value="&lt;font style=&quot;font-size: 12px;&quot;&gt;2&lt;/font&gt;" style="ellipse;whiteSpace=wrap;html=1;aspect=fixed;" vertex="1" parent="1">
          <mxGeometry x="-875" y="-1140" width="30" height="30" as="geometry" />
        </mxCell>
        <mxCell id="5HFoHFpW_PpsOGJbvyMc-6" style="edgeStyle=orthogonalEdgeStyle;rounded=0;orthogonalLoop=1;jettySize=auto;html=1;exitX=0.5;exitY=1;exitDx=0;exitDy=0;entryX=0.5;entryY=0;entryDx=0;entryDy=0;" edge="1" parent="1" source="otmdc9xM4TCSabEPH5Tj-5" target="9puG_qDbohNOItTrVRc8-6">
          <mxGeometry relative="1" as="geometry" />
        </mxCell>
        <mxCell id="otmdc9xM4TCSabEPH5Tj-5" value="&lt;div&gt;&lt;br&gt;&lt;/div&gt;&lt;div&gt;&lt;br&gt;&lt;/div&gt;&lt;div&gt;Led Zeppelin&lt;/div&gt;" style="ellipse;whiteSpace=wrap;html=1;aspect=fixed;" vertex="1" parent="1">
          <mxGeometry x="-715" y="-1140" width="70" height="70" as="geometry" />
        </mxCell>
        <mxCell id="otmdc9xM4TCSabEPH5Tj-6" value="&lt;font style=&quot;font-size: 12px;&quot;&gt;3&lt;/font&gt;" style="ellipse;whiteSpace=wrap;html=1;aspect=fixed;" vertex="1" parent="1">
          <mxGeometry x="-695" y="-1140" width="30" height="30" as="geometry" />
        </mxCell>
        <mxCell id="5HFoHFpW_PpsOGJbvyMc-7" style="edgeStyle=orthogonalEdgeStyle;rounded=0;orthogonalLoop=1;jettySize=auto;html=1;exitX=0.5;exitY=1;exitDx=0;exitDy=0;entryX=0.5;entryY=0;entryDx=0;entryDy=0;" edge="1" parent="1" source="otmdc9xM4TCSabEPH5Tj-7" target="9puG_qDbohNOItTrVRc8-8">
          <mxGeometry relative="1" as="geometry" />
        </mxCell>
        <mxCell id="otmdc9xM4TCSabEPH5Tj-7" value="&lt;div&gt;&lt;br&gt;&lt;/div&gt;&lt;div&gt;Qeen&lt;/div&gt;" style="ellipse;whiteSpace=wrap;html=1;aspect=fixed;" vertex="1" parent="1">
          <mxGeometry x="-535" y="-1140" width="70" height="70" as="geometry" />
        </mxCell>
        <mxCell id="otmdc9xM4TCSabEPH5Tj-8" value="&lt;font style=&quot;font-size: 12px;&quot;&gt;4&lt;/font&gt;" style="ellipse;whiteSpace=wrap;html=1;aspect=fixed;" vertex="1" parent="1">
          <mxGeometry x="-515" y="-1140" width="30" height="30" as="geometry" />
        </mxCell>
        <mxCell id="5HFoHFpW_PpsOGJbvyMc-10" style="edgeStyle=orthogonalEdgeStyle;rounded=0;orthogonalLoop=1;jettySize=auto;html=1;exitX=0.5;exitY=1;exitDx=0;exitDy=0;entryX=0.5;entryY=0;entryDx=0;entryDy=0;" edge="1" parent="1" source="otmdc9xM4TCSabEPH5Tj-9" target="9puG_qDbohNOItTrVRc8-10">
          <mxGeometry relative="1" as="geometry" />
        </mxCell>
        <mxCell id="otmdc9xM4TCSabEPH5Tj-9" value="&lt;div&gt;&lt;br&gt;&lt;/div&gt;&lt;div&gt;Mettalica&lt;/div&gt;" style="ellipse;whiteSpace=wrap;html=1;aspect=fixed;" vertex="1" parent="1">
          <mxGeometry x="-348" y="-1140" width="70" height="70" as="geometry" />
        </mxCell>
        <mxCell id="otmdc9xM4TCSabEPH5Tj-10" value="&lt;font style=&quot;font-size: 12px;&quot;&gt;5&lt;/font&gt;" style="ellipse;whiteSpace=wrap;html=1;aspect=fixed;" vertex="1" parent="1">
          <mxGeometry x="-328" y="-1140" width="30" height="30" as="geometry" />
        </mxCell>
        <mxCell id="5HFoHFpW_PpsOGJbvyMc-11" style="edgeStyle=orthogonalEdgeStyle;rounded=0;orthogonalLoop=1;jettySize=auto;html=1;exitX=0.5;exitY=1;exitDx=0;exitDy=0;entryX=0.5;entryY=0;entryDx=0;entryDy=0;" edge="1" parent="1" source="otmdc9xM4TCSabEPH5Tj-11" target="9puG_qDbohNOItTrVRc8-12">
          <mxGeometry relative="1" as="geometry" />
        </mxCell>
        <mxCell id="otmdc9xM4TCSabEPH5Tj-11" value="&lt;div&gt;&lt;br&gt;&lt;/div&gt;&lt;div&gt;Nirvana&lt;/div&gt;" style="ellipse;whiteSpace=wrap;html=1;aspect=fixed;" vertex="1" parent="1">
          <mxGeometry x="-195" y="-1140" width="70" height="70" as="geometry" />
        </mxCell>
        <mxCell id="otmdc9xM4TCSabEPH5Tj-12" value="&lt;font style=&quot;font-size: 12px;&quot;&gt;6&lt;/font&gt;" style="ellipse;whiteSpace=wrap;html=1;aspect=fixed;" vertex="1" parent="1">
          <mxGeometry x="-175" y="-1140" width="30" height="30" as="geometry" />
        </mxCell>
        <mxCell id="5HFoHFpW_PpsOGJbvyMc-12" style="edgeStyle=orthogonalEdgeStyle;rounded=0;orthogonalLoop=1;jettySize=auto;html=1;exitX=0.5;exitY=1;exitDx=0;exitDy=0;entryX=0.5;entryY=0;entryDx=0;entryDy=0;" edge="1" parent="1" source="otmdc9xM4TCSabEPH5Tj-13" target="9puG_qDbohNOItTrVRc8-14">
          <mxGeometry relative="1" as="geometry" />
        </mxCell>
        <mxCell id="otmdc9xM4TCSabEPH5Tj-13" value="&lt;div&gt;&lt;br&gt;&lt;/div&gt;&lt;div&gt;Radiohead&lt;/div&gt;" style="ellipse;whiteSpace=wrap;html=1;aspect=fixed;" vertex="1" parent="1">
          <mxGeometry x="-15" y="-1140" width="70" height="70" as="geometry" />
        </mxCell>
        <mxCell id="otmdc9xM4TCSabEPH5Tj-14" value="&lt;font style=&quot;font-size: 12px;&quot;&gt;7&lt;/font&gt;" style="ellipse;whiteSpace=wrap;html=1;aspect=fixed;" vertex="1" parent="1">
          <mxGeometry x="5" y="-1140" width="30" height="30" as="geometry" />
        </mxCell>
        <mxCell id="5HFoHFpW_PpsOGJbvyMc-13" style="edgeStyle=orthogonalEdgeStyle;rounded=0;orthogonalLoop=1;jettySize=auto;html=1;exitX=0.5;exitY=1;exitDx=0;exitDy=0;entryX=0.5;entryY=0;entryDx=0;entryDy=0;" edge="1" parent="1" source="otmdc9xM4TCSabEPH5Tj-15" target="9puG_qDbohNOItTrVRc8-16">
          <mxGeometry relative="1" as="geometry" />
        </mxCell>
        <mxCell id="otmdc9xM4TCSabEPH5Tj-15" value="&lt;div&gt;&lt;br&gt;&lt;/div&gt;&lt;div&gt;&lt;br&gt;&lt;/div&gt;&lt;div&gt;David&lt;/div&gt;&lt;div&gt;Bowie&lt;/div&gt;" style="ellipse;whiteSpace=wrap;html=1;aspect=fixed;" vertex="1" parent="1">
          <mxGeometry x="165" y="-1140" width="70" height="70" as="geometry" />
        </mxCell>
        <mxCell id="otmdc9xM4TCSabEPH5Tj-16" value="&lt;font style=&quot;font-size: 12px;&quot;&gt;8&lt;/font&gt;" style="ellipse;whiteSpace=wrap;html=1;aspect=fixed;" vertex="1" parent="1">
          <mxGeometry x="185" y="-1140" width="30" height="30" as="geometry" />
        </mxCell>
        <mxCell id="5HFoHFpW_PpsOGJbvyMc-14" style="edgeStyle=orthogonalEdgeStyle;rounded=0;orthogonalLoop=1;jettySize=auto;html=1;exitX=0.5;exitY=1;exitDx=0;exitDy=0;entryX=0.5;entryY=0;entryDx=0;entryDy=0;" edge="1" parent="1" source="otmdc9xM4TCSabEPH5Tj-17" target="9puG_qDbohNOItTrVRc8-18">
          <mxGeometry relative="1" as="geometry" />
        </mxCell>
        <mxCell id="otmdc9xM4TCSabEPH5Tj-17" value="&lt;div&gt;&lt;br&gt;&lt;/div&gt;&lt;div&gt;&lt;br&gt;&lt;/div&gt;&lt;div&gt;Michael&lt;/div&gt;&lt;div&gt;Jackson&lt;/div&gt;" style="ellipse;whiteSpace=wrap;html=1;aspect=fixed;" vertex="1" parent="1">
          <mxGeometry x="345" y="-1150" width="70" height="70" as="geometry" />
        </mxCell>
        <mxCell id="otmdc9xM4TCSabEPH5Tj-18" value="&lt;font style=&quot;font-size: 12px;&quot;&gt;9&lt;/font&gt;" style="ellipse;whiteSpace=wrap;html=1;aspect=fixed;" vertex="1" parent="1">
          <mxGeometry x="365" y="-1150" width="30" height="30" as="geometry" />
        </mxCell>
        <mxCell id="5HFoHFpW_PpsOGJbvyMc-15" style="edgeStyle=orthogonalEdgeStyle;rounded=0;orthogonalLoop=1;jettySize=auto;html=1;exitX=0.5;exitY=1;exitDx=0;exitDy=0;entryX=0.5;entryY=0;entryDx=0;entryDy=0;" edge="1" parent="1" source="otmdc9xM4TCSabEPH5Tj-19" target="9puG_qDbohNOItTrVRc8-20">
          <mxGeometry relative="1" as="geometry" />
        </mxCell>
        <mxCell id="otmdc9xM4TCSabEPH5Tj-19" value="&lt;div&gt;&lt;br&gt;&lt;/div&gt;&lt;div&gt;Maddona&lt;/div&gt;" style="ellipse;whiteSpace=wrap;html=1;aspect=fixed;" vertex="1" parent="1">
          <mxGeometry x="532" y="-1150" width="70" height="70" as="geometry" />
        </mxCell>
        <mxCell id="otmdc9xM4TCSabEPH5Tj-20" value="&lt;font style=&quot;font-size: 12px;&quot;&gt;10&lt;/font&gt;" style="ellipse;whiteSpace=wrap;html=1;aspect=fixed;" vertex="1" parent="1">
          <mxGeometry x="552" y="-1150" width="30" height="30" as="geometry" />
        </mxCell>
        <mxCell id="5HFoHFpW_PpsOGJbvyMc-17" style="edgeStyle=orthogonalEdgeStyle;rounded=0;orthogonalLoop=1;jettySize=auto;html=1;exitX=0.5;exitY=0;exitDx=0;exitDy=0;entryX=0.5;entryY=1;entryDx=0;entryDy=0;" edge="1" parent="1" source="otmdc9xM4TCSabEPH5Tj-21" target="9puG_qDbohNOItTrVRc8-21">
          <mxGeometry relative="1" as="geometry" />
        </mxCell>
        <mxCell id="otmdc9xM4TCSabEPH5Tj-21" value="&lt;div&gt;&lt;br&gt;&lt;/div&gt;&lt;div&gt;&lt;br&gt;&lt;/div&gt;&lt;div&gt;Elton&lt;/div&gt;&lt;div&gt;Jhon&lt;/div&gt;" style="ellipse;whiteSpace=wrap;html=1;aspect=fixed;" vertex="1" parent="1">
          <mxGeometry x="-1075" y="-730" width="70" height="70" as="geometry" />
        </mxCell>
        <mxCell id="otmdc9xM4TCSabEPH5Tj-22" value="&lt;font style=&quot;font-size: 12px;&quot;&gt;11&lt;/font&gt;" style="ellipse;whiteSpace=wrap;html=1;aspect=fixed;" vertex="1" parent="1">
          <mxGeometry x="-1055" y="-730" width="30" height="30" as="geometry" />
        </mxCell>
        <mxCell id="otmdc9xM4TCSabEPH5Tj-23" value="&lt;div&gt;&lt;br&gt;&lt;/div&gt;&lt;div&gt;Eminem&lt;/div&gt;" style="ellipse;whiteSpace=wrap;html=1;aspect=fixed;" vertex="1" parent="1">
          <mxGeometry x="-895" y="-730" width="70" height="70" as="geometry" />
        </mxCell>
        <mxCell id="5HFoHFpW_PpsOGJbvyMc-16" style="edgeStyle=orthogonalEdgeStyle;rounded=0;orthogonalLoop=1;jettySize=auto;html=1;exitX=0.5;exitY=0;exitDx=0;exitDy=0;entryX=0.5;entryY=1;entryDx=0;entryDy=0;" edge="1" parent="1" source="otmdc9xM4TCSabEPH5Tj-24" target="9puG_qDbohNOItTrVRc8-23">
          <mxGeometry relative="1" as="geometry" />
        </mxCell>
        <mxCell id="otmdc9xM4TCSabEPH5Tj-24" value="&lt;font style=&quot;font-size: 12px;&quot;&gt;12&lt;/font&gt;" style="ellipse;whiteSpace=wrap;html=1;aspect=fixed;" vertex="1" parent="1">
          <mxGeometry x="-875" y="-730" width="30" height="30" as="geometry" />
        </mxCell>
        <mxCell id="9puG_qDbohNOItTrVRc8-1" value="Abbey Road" style="rounded=0;whiteSpace=wrap;html=1;" vertex="1" parent="1">
          <mxGeometry x="-1100" y="-1010" width="120" height="60" as="geometry" />
        </mxCell>
        <mxCell id="9puG_qDbohNOItTrVRc8-2" value="1" style="rounded=0;whiteSpace=wrap;html=1;" vertex="1" parent="1">
          <mxGeometry x="-1065" y="-1010" width="50" height="20" as="geometry" />
        </mxCell>
        <mxCell id="9puG_qDbohNOItTrVRc8-3" value="&lt;div&gt;&lt;br&gt;&lt;/div&gt;&lt;div&gt;The Dark Side of the Moon&lt;/div&gt;" style="rounded=0;whiteSpace=wrap;html=1;" vertex="1" parent="1">
          <mxGeometry x="-920" y="-1010" width="120" height="60" as="geometry" />
        </mxCell>
        <mxCell id="9puG_qDbohNOItTrVRc8-4" value="2" style="rounded=0;whiteSpace=wrap;html=1;" vertex="1" parent="1">
          <mxGeometry x="-885" y="-1010" width="50" height="20" as="geometry" />
        </mxCell>
        <mxCell id="9puG_qDbohNOItTrVRc8-5" value="Led Zeppelin IV" style="rounded=0;whiteSpace=wrap;html=1;" vertex="1" parent="1">
          <mxGeometry x="-740" y="-1010" width="120" height="60" as="geometry" />
        </mxCell>
        <mxCell id="9puG_qDbohNOItTrVRc8-6" value="3" style="rounded=0;whiteSpace=wrap;html=1;" vertex="1" parent="1">
          <mxGeometry x="-705" y="-1010" width="50" height="20" as="geometry" />
        </mxCell>
        <mxCell id="9puG_qDbohNOItTrVRc8-7" value="A night at the Opera" style="rounded=0;whiteSpace=wrap;html=1;" vertex="1" parent="1">
          <mxGeometry x="-560" y="-1010" width="120" height="60" as="geometry" />
        </mxCell>
        <mxCell id="9puG_qDbohNOItTrVRc8-8" value="4" style="rounded=0;whiteSpace=wrap;html=1;" vertex="1" parent="1">
          <mxGeometry x="-525" y="-1010" width="50" height="20" as="geometry" />
        </mxCell>
        <mxCell id="9puG_qDbohNOItTrVRc8-9" value="Master of Puppets" style="rounded=0;whiteSpace=wrap;html=1;" vertex="1" parent="1">
          <mxGeometry x="-373" y="-1010" width="120" height="60" as="geometry" />
        </mxCell>
        <mxCell id="9puG_qDbohNOItTrVRc8-10" value="5" style="rounded=0;whiteSpace=wrap;html=1;" vertex="1" parent="1">
          <mxGeometry x="-338" y="-1010" width="50" height="20" as="geometry" />
        </mxCell>
        <mxCell id="9puG_qDbohNOItTrVRc8-11" value="Nevermind" style="rounded=0;whiteSpace=wrap;html=1;" vertex="1" parent="1">
          <mxGeometry x="-220" y="-1010" width="120" height="60" as="geometry" />
        </mxCell>
        <mxCell id="9puG_qDbohNOItTrVRc8-12" value="6" style="rounded=0;whiteSpace=wrap;html=1;" vertex="1" parent="1">
          <mxGeometry x="-185" y="-1010" width="50" height="20" as="geometry" />
        </mxCell>
        <mxCell id="9puG_qDbohNOItTrVRc8-13" value="OK Computer" style="rounded=0;whiteSpace=wrap;html=1;" vertex="1" parent="1">
          <mxGeometry x="-40" y="-1010" width="120" height="60" as="geometry" />
        </mxCell>
        <mxCell id="9puG_qDbohNOItTrVRc8-14" value="7" style="rounded=0;whiteSpace=wrap;html=1;" vertex="1" parent="1">
          <mxGeometry x="-5" y="-1010" width="50" height="20" as="geometry" />
        </mxCell>
        <mxCell id="9puG_qDbohNOItTrVRc8-15" value="&lt;div&gt;&lt;br&gt;&lt;/div&gt;&lt;div&gt;The Rise and Fall of Ziggy Stardust&lt;/div&gt;" style="rounded=0;whiteSpace=wrap;html=1;" vertex="1" parent="1">
          <mxGeometry x="140" y="-1010" width="120" height="60" as="geometry" />
        </mxCell>
        <mxCell id="9puG_qDbohNOItTrVRc8-16" value="8" style="rounded=0;whiteSpace=wrap;html=1;" vertex="1" parent="1">
          <mxGeometry x="175" y="-1010" width="50" height="20" as="geometry" />
        </mxCell>
        <mxCell id="9puG_qDbohNOItTrVRc8-17" value="&lt;div&gt;Thriller&lt;/div&gt;" style="rounded=0;whiteSpace=wrap;html=1;" vertex="1" parent="1">
          <mxGeometry x="320" y="-1010" width="120" height="60" as="geometry" />
        </mxCell>
        <mxCell id="9puG_qDbohNOItTrVRc8-18" value="9" style="rounded=0;whiteSpace=wrap;html=1;" vertex="1" parent="1">
          <mxGeometry x="355" y="-1010" width="50" height="20" as="geometry" />
        </mxCell>
        <mxCell id="9puG_qDbohNOItTrVRc8-19" value="&lt;div&gt;Like a Virgin&lt;/div&gt;" style="rounded=0;whiteSpace=wrap;html=1;" vertex="1" parent="1">
          <mxGeometry x="507" y="-1010" width="120" height="60" as="geometry" />
        </mxCell>
        <mxCell id="9puG_qDbohNOItTrVRc8-20" value="10" style="rounded=0;whiteSpace=wrap;html=1;" vertex="1" parent="1">
          <mxGeometry x="542" y="-1010" width="50" height="20" as="geometry" />
        </mxCell>
        <mxCell id="9puG_qDbohNOItTrVRc8-21" value="&lt;div&gt;&lt;br&gt;&lt;/div&gt;&lt;div&gt;Goodbye Yellow&amp;nbsp;&lt;/div&gt;&lt;div&gt;Brick Road&lt;/div&gt;" style="rounded=0;whiteSpace=wrap;html=1;" vertex="1" parent="1">
          <mxGeometry x="-1100" y="-850" width="120" height="60" as="geometry" />
        </mxCell>
        <mxCell id="9puG_qDbohNOItTrVRc8-22" value="11" style="rounded=0;whiteSpace=wrap;html=1;" vertex="1" parent="1">
          <mxGeometry x="-1065" y="-850" width="50" height="20" as="geometry" />
        </mxCell>
        <mxCell id="9puG_qDbohNOItTrVRc8-23" value="&lt;div&gt;&lt;br&gt;&lt;/div&gt;&lt;div&gt;The Marshall&amp;nbsp;&lt;/div&gt;&lt;div&gt;Mathers LP&lt;/div&gt;" style="rounded=0;whiteSpace=wrap;html=1;" vertex="1" parent="1">
          <mxGeometry x="-920" y="-850" width="120" height="60" as="geometry" />
        </mxCell>
        <mxCell id="9puG_qDbohNOItTrVRc8-24" value="12" style="rounded=0;whiteSpace=wrap;html=1;" vertex="1" parent="1">
          <mxGeometry x="-885" y="-850" width="50" height="20" as="geometry" />
        </mxCell>
      </root>
    </mxGraphModel>
  </diagram>
  <diagram id="javiK_mJM847Ckf1IRG5" name="edge.BelongsTo">
    <mxGraphModel dx="1747" dy="1153" grid="1" gridSize="10" guides="1" tooltips="1" connect="1" arrows="1" fold="1" page="1" pageScale="1" pageWidth="827" pageHeight="1169" math="0" shadow="0">
      <root>
        <mxCell id="0" />
        <mxCell id="1" parent="0" />
        <mxCell id="BGe-2FDn_jNL-zvXW_9y-1" value="Rock" style="shape=hexagon;perimeter=hexagonPerimeter2;whiteSpace=wrap;html=1;fixedSize=1;" vertex="1" parent="1">
          <mxGeometry x="190" y="120" width="120" height="80" as="geometry" />
        </mxCell>
        <mxCell id="BGe-2FDn_jNL-zvXW_9y-2" value="1" style="shape=hexagon;perimeter=hexagonPerimeter2;whiteSpace=wrap;html=1;fixedSize=1;" vertex="1" parent="1">
          <mxGeometry x="225" y="120" width="50" height="20" as="geometry" />
        </mxCell>
        <mxCell id="BGe-2FDn_jNL-zvXW_9y-3" value="Progressive Rock" style="shape=hexagon;perimeter=hexagonPerimeter2;whiteSpace=wrap;html=1;fixedSize=1;" vertex="1" parent="1">
          <mxGeometry x="450" y="120" width="120" height="80" as="geometry" />
        </mxCell>
        <mxCell id="BGe-2FDn_jNL-zvXW_9y-4" value="2" style="shape=hexagon;perimeter=hexagonPerimeter2;whiteSpace=wrap;html=1;fixedSize=1;" vertex="1" parent="1">
          <mxGeometry x="485" y="120" width="50" height="20" as="geometry" />
        </mxCell>
        <mxCell id="BGe-2FDn_jNL-zvXW_9y-5" value="Heavy Metal" style="shape=hexagon;perimeter=hexagonPerimeter2;whiteSpace=wrap;html=1;fixedSize=1;" vertex="1" parent="1">
          <mxGeometry x="610" y="120" width="120" height="80" as="geometry" />
        </mxCell>
        <mxCell id="BGe-2FDn_jNL-zvXW_9y-6" value="3" style="shape=hexagon;perimeter=hexagonPerimeter2;whiteSpace=wrap;html=1;fixedSize=1;" vertex="1" parent="1">
          <mxGeometry x="645" y="120" width="50" height="20" as="geometry" />
        </mxCell>
        <mxCell id="BGe-2FDn_jNL-zvXW_9y-7" value="Grunge" style="shape=hexagon;perimeter=hexagonPerimeter2;whiteSpace=wrap;html=1;fixedSize=1;" vertex="1" parent="1">
          <mxGeometry x="770" y="120" width="120" height="80" as="geometry" />
        </mxCell>
        <mxCell id="BGe-2FDn_jNL-zvXW_9y-8" value="4" style="shape=hexagon;perimeter=hexagonPerimeter2;whiteSpace=wrap;html=1;fixedSize=1;" vertex="1" parent="1">
          <mxGeometry x="805" y="120" width="50" height="20" as="geometry" />
        </mxCell>
        <mxCell id="BGe-2FDn_jNL-zvXW_9y-9" value="Alternative Rock" style="shape=hexagon;perimeter=hexagonPerimeter2;whiteSpace=wrap;html=1;fixedSize=1;" vertex="1" parent="1">
          <mxGeometry x="950" y="120" width="120" height="80" as="geometry" />
        </mxCell>
        <mxCell id="BGe-2FDn_jNL-zvXW_9y-10" value="5" style="shape=hexagon;perimeter=hexagonPerimeter2;whiteSpace=wrap;html=1;fixedSize=1;" vertex="1" parent="1">
          <mxGeometry x="985" y="120" width="50" height="20" as="geometry" />
        </mxCell>
        <mxCell id="BGe-2FDn_jNL-zvXW_9y-11" value="Pop" style="shape=hexagon;perimeter=hexagonPerimeter2;whiteSpace=wrap;html=1;fixedSize=1;" vertex="1" parent="1">
          <mxGeometry x="1110" y="120" width="120" height="80" as="geometry" />
        </mxCell>
        <mxCell id="BGe-2FDn_jNL-zvXW_9y-12" value="6" style="shape=hexagon;perimeter=hexagonPerimeter2;whiteSpace=wrap;html=1;fixedSize=1;" vertex="1" parent="1">
          <mxGeometry x="1145" y="120" width="50" height="20" as="geometry" />
        </mxCell>
        <mxCell id="BGe-2FDn_jNL-zvXW_9y-13" value="Hip Hop" style="shape=hexagon;perimeter=hexagonPerimeter2;whiteSpace=wrap;html=1;fixedSize=1;" vertex="1" parent="1">
          <mxGeometry x="1270" y="120" width="120" height="80" as="geometry" />
        </mxCell>
        <mxCell id="BGe-2FDn_jNL-zvXW_9y-14" value="7" style="shape=hexagon;perimeter=hexagonPerimeter2;whiteSpace=wrap;html=1;fixedSize=1;" vertex="1" parent="1">
          <mxGeometry x="1305" y="120" width="50" height="20" as="geometry" />
        </mxCell>
        <mxCell id="BGe-2FDn_jNL-zvXW_9y-15" value="Glap Rock" style="shape=hexagon;perimeter=hexagonPerimeter2;whiteSpace=wrap;html=1;fixedSize=1;" vertex="1" parent="1">
          <mxGeometry x="1430" y="120" width="120" height="80" as="geometry" />
        </mxCell>
        <mxCell id="BGe-2FDn_jNL-zvXW_9y-16" value="8" style="shape=hexagon;perimeter=hexagonPerimeter2;whiteSpace=wrap;html=1;fixedSize=1;" vertex="1" parent="1">
          <mxGeometry x="1465" y="120" width="50" height="20" as="geometry" />
        </mxCell>
        <mxCell id="JoB6Zxh1s8K0CLLg_lcz-27" style="edgeStyle=orthogonalEdgeStyle;rounded=0;orthogonalLoop=1;jettySize=auto;html=1;exitX=0.5;exitY=1;exitDx=0;exitDy=0;entryX=0.5;entryY=0;entryDx=0;entryDy=0;" edge="1" parent="1" source="JoB6Zxh1s8K0CLLg_lcz-1" target="BGe-2FDn_jNL-zvXW_9y-2">
          <mxGeometry relative="1" as="geometry" />
        </mxCell>
        <mxCell id="JoB6Zxh1s8K0CLLg_lcz-1" value="Abbey Road" style="rounded=0;whiteSpace=wrap;html=1;" vertex="1" parent="1">
          <mxGeometry x="190" y="10" width="120" height="60" as="geometry" />
        </mxCell>
        <mxCell id="JoB6Zxh1s8K0CLLg_lcz-2" value="1" style="rounded=0;whiteSpace=wrap;html=1;" vertex="1" parent="1">
          <mxGeometry x="225" y="10" width="50" height="20" as="geometry" />
        </mxCell>
        <mxCell id="JoB6Zxh1s8K0CLLg_lcz-28" style="edgeStyle=orthogonalEdgeStyle;rounded=0;orthogonalLoop=1;jettySize=auto;html=1;exitX=0.5;exitY=1;exitDx=0;exitDy=0;entryX=0.5;entryY=0;entryDx=0;entryDy=0;" edge="1" parent="1" source="JoB6Zxh1s8K0CLLg_lcz-3" target="BGe-2FDn_jNL-zvXW_9y-4">
          <mxGeometry relative="1" as="geometry" />
        </mxCell>
        <mxCell id="JoB6Zxh1s8K0CLLg_lcz-3" value="&lt;div&gt;&lt;br&gt;&lt;/div&gt;&lt;div&gt;The Dark Side of the Moon&lt;/div&gt;" style="rounded=0;whiteSpace=wrap;html=1;" vertex="1" parent="1">
          <mxGeometry x="450" y="10" width="120" height="60" as="geometry" />
        </mxCell>
        <mxCell id="JoB6Zxh1s8K0CLLg_lcz-4" value="2" style="rounded=0;whiteSpace=wrap;html=1;" vertex="1" parent="1">
          <mxGeometry x="485" y="10" width="50" height="20" as="geometry" />
        </mxCell>
        <mxCell id="JoB6Zxh1s8K0CLLg_lcz-26" style="edgeStyle=orthogonalEdgeStyle;rounded=0;orthogonalLoop=1;jettySize=auto;html=1;exitX=0.5;exitY=0;exitDx=0;exitDy=0;entryX=0.5;entryY=1;entryDx=0;entryDy=0;" edge="1" parent="1" source="JoB6Zxh1s8K0CLLg_lcz-5" target="BGe-2FDn_jNL-zvXW_9y-1">
          <mxGeometry relative="1" as="geometry" />
        </mxCell>
        <mxCell id="JoB6Zxh1s8K0CLLg_lcz-5" value="Led Zeppelin IV" style="rounded=0;whiteSpace=wrap;html=1;" vertex="1" parent="1">
          <mxGeometry x="80" y="260" width="120" height="60" as="geometry" />
        </mxCell>
        <mxCell id="JoB6Zxh1s8K0CLLg_lcz-6" value="3" style="rounded=0;whiteSpace=wrap;html=1;" vertex="1" parent="1">
          <mxGeometry x="115" y="260" width="50" height="20" as="geometry" />
        </mxCell>
        <mxCell id="JoB6Zxh1s8K0CLLg_lcz-25" style="edgeStyle=orthogonalEdgeStyle;rounded=0;orthogonalLoop=1;jettySize=auto;html=1;exitX=0.5;exitY=0;exitDx=0;exitDy=0;entryX=0.5;entryY=1;entryDx=0;entryDy=0;" edge="1" parent="1" source="JoB6Zxh1s8K0CLLg_lcz-7" target="BGe-2FDn_jNL-zvXW_9y-1">
          <mxGeometry relative="1" as="geometry" />
        </mxCell>
        <mxCell id="JoB6Zxh1s8K0CLLg_lcz-7" value="A night at the Opera" style="rounded=0;whiteSpace=wrap;html=1;" vertex="1" parent="1">
          <mxGeometry x="275" y="260" width="120" height="60" as="geometry" />
        </mxCell>
        <mxCell id="JoB6Zxh1s8K0CLLg_lcz-8" value="4" style="rounded=0;whiteSpace=wrap;html=1;" vertex="1" parent="1">
          <mxGeometry x="310" y="260" width="50" height="20" as="geometry" />
        </mxCell>
        <mxCell id="JoB6Zxh1s8K0CLLg_lcz-29" style="edgeStyle=orthogonalEdgeStyle;rounded=0;orthogonalLoop=1;jettySize=auto;html=1;exitX=0.5;exitY=1;exitDx=0;exitDy=0;entryX=0.5;entryY=0;entryDx=0;entryDy=0;" edge="1" parent="1" source="JoB6Zxh1s8K0CLLg_lcz-9" target="BGe-2FDn_jNL-zvXW_9y-6">
          <mxGeometry relative="1" as="geometry" />
        </mxCell>
        <mxCell id="JoB6Zxh1s8K0CLLg_lcz-9" value="Master of Puppets" style="rounded=0;whiteSpace=wrap;html=1;" vertex="1" parent="1">
          <mxGeometry x="610" y="10" width="120" height="60" as="geometry" />
        </mxCell>
        <mxCell id="JoB6Zxh1s8K0CLLg_lcz-10" value="5" style="rounded=0;whiteSpace=wrap;html=1;" vertex="1" parent="1">
          <mxGeometry x="645" y="10" width="50" height="20" as="geometry" />
        </mxCell>
        <mxCell id="JoB6Zxh1s8K0CLLg_lcz-31" style="edgeStyle=orthogonalEdgeStyle;rounded=0;orthogonalLoop=1;jettySize=auto;html=1;exitX=0.5;exitY=1;exitDx=0;exitDy=0;entryX=0.5;entryY=0;entryDx=0;entryDy=0;" edge="1" parent="1" source="JoB6Zxh1s8K0CLLg_lcz-11" target="BGe-2FDn_jNL-zvXW_9y-8">
          <mxGeometry relative="1" as="geometry" />
        </mxCell>
        <mxCell id="JoB6Zxh1s8K0CLLg_lcz-11" value="Nevermind" style="rounded=0;whiteSpace=wrap;html=1;" vertex="1" parent="1">
          <mxGeometry x="770" y="10" width="120" height="60" as="geometry" />
        </mxCell>
        <mxCell id="JoB6Zxh1s8K0CLLg_lcz-12" value="6" style="rounded=0;whiteSpace=wrap;html=1;" vertex="1" parent="1">
          <mxGeometry x="815" y="10" width="50" height="20" as="geometry" />
        </mxCell>
        <mxCell id="JoB6Zxh1s8K0CLLg_lcz-32" style="edgeStyle=orthogonalEdgeStyle;rounded=0;orthogonalLoop=1;jettySize=auto;html=1;exitX=0.5;exitY=1;exitDx=0;exitDy=0;entryX=0.5;entryY=0;entryDx=0;entryDy=0;" edge="1" parent="1" source="JoB6Zxh1s8K0CLLg_lcz-13" target="BGe-2FDn_jNL-zvXW_9y-10">
          <mxGeometry relative="1" as="geometry" />
        </mxCell>
        <mxCell id="JoB6Zxh1s8K0CLLg_lcz-13" value="OK Computer" style="rounded=0;whiteSpace=wrap;html=1;" vertex="1" parent="1">
          <mxGeometry x="950" y="10" width="120" height="60" as="geometry" />
        </mxCell>
        <mxCell id="JoB6Zxh1s8K0CLLg_lcz-14" value="7" style="rounded=0;whiteSpace=wrap;html=1;" vertex="1" parent="1">
          <mxGeometry x="985" y="10" width="50" height="20" as="geometry" />
        </mxCell>
        <mxCell id="JoB6Zxh1s8K0CLLg_lcz-33" style="edgeStyle=orthogonalEdgeStyle;rounded=0;orthogonalLoop=1;jettySize=auto;html=1;exitX=0.5;exitY=1;exitDx=0;exitDy=0;entryX=0.5;entryY=0;entryDx=0;entryDy=0;" edge="1" parent="1" source="JoB6Zxh1s8K0CLLg_lcz-15" target="BGe-2FDn_jNL-zvXW_9y-16">
          <mxGeometry relative="1" as="geometry" />
        </mxCell>
        <mxCell id="JoB6Zxh1s8K0CLLg_lcz-15" value="&lt;div&gt;&lt;br&gt;&lt;/div&gt;&lt;div&gt;The Rise and Fall of Ziggy Stardust&lt;/div&gt;" style="rounded=0;whiteSpace=wrap;html=1;" vertex="1" parent="1">
          <mxGeometry x="1430" y="10" width="120" height="60" as="geometry" />
        </mxCell>
        <mxCell id="JoB6Zxh1s8K0CLLg_lcz-16" value="8" style="rounded=0;whiteSpace=wrap;html=1;" vertex="1" parent="1">
          <mxGeometry x="1465" y="10" width="50" height="20" as="geometry" />
        </mxCell>
        <mxCell id="JoB6Zxh1s8K0CLLg_lcz-35" style="edgeStyle=orthogonalEdgeStyle;rounded=0;orthogonalLoop=1;jettySize=auto;html=1;exitX=0.5;exitY=0;exitDx=0;exitDy=0;entryX=0.5;entryY=1;entryDx=0;entryDy=0;" edge="1" parent="1" source="JoB6Zxh1s8K0CLLg_lcz-17" target="BGe-2FDn_jNL-zvXW_9y-11">
          <mxGeometry relative="1" as="geometry" />
        </mxCell>
        <mxCell id="JoB6Zxh1s8K0CLLg_lcz-17" value="&lt;div&gt;Thriller&lt;/div&gt;" style="rounded=0;whiteSpace=wrap;html=1;" vertex="1" parent="1">
          <mxGeometry x="1025" y="300" width="120" height="60" as="geometry" />
        </mxCell>
        <mxCell id="JoB6Zxh1s8K0CLLg_lcz-18" value="9" style="rounded=0;whiteSpace=wrap;html=1;" vertex="1" parent="1">
          <mxGeometry x="1060" y="300" width="50" height="20" as="geometry" />
        </mxCell>
        <mxCell id="JoB6Zxh1s8K0CLLg_lcz-34" style="edgeStyle=orthogonalEdgeStyle;rounded=0;orthogonalLoop=1;jettySize=auto;html=1;exitX=0.5;exitY=1;exitDx=0;exitDy=0;entryX=0.5;entryY=0;entryDx=0;entryDy=0;" edge="1" parent="1" source="JoB6Zxh1s8K0CLLg_lcz-19" target="BGe-2FDn_jNL-zvXW_9y-12">
          <mxGeometry relative="1" as="geometry" />
        </mxCell>
        <mxCell id="JoB6Zxh1s8K0CLLg_lcz-19" value="&lt;div&gt;Like a Virgin&lt;/div&gt;" style="rounded=0;whiteSpace=wrap;html=1;" vertex="1" parent="1">
          <mxGeometry x="1110" y="10" width="120" height="60" as="geometry" />
        </mxCell>
        <mxCell id="JoB6Zxh1s8K0CLLg_lcz-20" value="10" style="rounded=0;whiteSpace=wrap;html=1;" vertex="1" parent="1">
          <mxGeometry x="1145" y="10" width="50" height="20" as="geometry" />
        </mxCell>
        <mxCell id="JoB6Zxh1s8K0CLLg_lcz-36" style="edgeStyle=orthogonalEdgeStyle;rounded=0;orthogonalLoop=1;jettySize=auto;html=1;exitX=0.5;exitY=0;exitDx=0;exitDy=0;entryX=0.5;entryY=1;entryDx=0;entryDy=0;" edge="1" parent="1" source="JoB6Zxh1s8K0CLLg_lcz-21" target="BGe-2FDn_jNL-zvXW_9y-11">
          <mxGeometry relative="1" as="geometry" />
        </mxCell>
        <mxCell id="JoB6Zxh1s8K0CLLg_lcz-21" value="&lt;div&gt;&lt;br&gt;&lt;/div&gt;&lt;div&gt;Goodbye Yellow&amp;nbsp;&lt;/div&gt;&lt;div&gt;Brick Road&lt;/div&gt;" style="rounded=0;whiteSpace=wrap;html=1;" vertex="1" parent="1">
          <mxGeometry x="1195" y="300" width="120" height="60" as="geometry" />
        </mxCell>
        <mxCell id="JoB6Zxh1s8K0CLLg_lcz-22" value="11" style="rounded=0;whiteSpace=wrap;html=1;" vertex="1" parent="1">
          <mxGeometry x="1230" y="300" width="50" height="20" as="geometry" />
        </mxCell>
        <mxCell id="JoB6Zxh1s8K0CLLg_lcz-37" style="edgeStyle=orthogonalEdgeStyle;rounded=0;orthogonalLoop=1;jettySize=auto;html=1;exitX=0.5;exitY=1;exitDx=0;exitDy=0;entryX=0.5;entryY=0;entryDx=0;entryDy=0;" edge="1" parent="1" source="JoB6Zxh1s8K0CLLg_lcz-23" target="BGe-2FDn_jNL-zvXW_9y-14">
          <mxGeometry relative="1" as="geometry" />
        </mxCell>
        <mxCell id="JoB6Zxh1s8K0CLLg_lcz-23" value="&lt;div&gt;&lt;br&gt;&lt;/div&gt;&lt;div&gt;The Marshall&amp;nbsp;&lt;/div&gt;&lt;div&gt;Mathers LP&lt;/div&gt;" style="rounded=0;whiteSpace=wrap;html=1;" vertex="1" parent="1">
          <mxGeometry x="1270" y="10" width="120" height="60" as="geometry" />
        </mxCell>
        <mxCell id="JoB6Zxh1s8K0CLLg_lcz-24" value="12" style="rounded=0;whiteSpace=wrap;html=1;" vertex="1" parent="1">
          <mxGeometry x="1305" y="10" width="50" height="20" as="geometry" />
        </mxCell>
      </root>
    </mxGraphModel>
  </diagram>
  <diagram id="29j-BbULinsUK5wfSKkL" name="edge.ColaboratedWith">
    <mxGraphModel dx="2777" dy="3079" grid="1" gridSize="10" guides="1" tooltips="1" connect="1" arrows="1" fold="1" page="1" pageScale="1" pageWidth="827" pageHeight="1169" math="0" shadow="0">
      <root>
        <mxCell id="0" />
        <mxCell id="1" parent="0" />
        <mxCell id="rspuwrprE4pzlrUakRz--3" value="" style="curved=1;endArrow=classic;html=1;rounded=0;exitX=0;exitY=0;exitDx=0;exitDy=0;" parent="1" source="iziNwAYz0rUQuldIovJU-17" edge="1">
          <mxGeometry width="50" height="50" relative="1" as="geometry">
            <mxPoint x="-790" y="-2270" as="sourcePoint" />
            <mxPoint x="-1063.3333333333335" y="-2100" as="targetPoint" />
            <Array as="points">
              <mxPoint x="-910" y="-2290" />
              <mxPoint x="-1130" y="-2180" />
            </Array>
          </mxGeometry>
        </mxCell>
        <mxCell id="sOsme-dzQ4BMipDb4jZm-1" value="2" style="text;html=1;align=center;verticalAlign=middle;whiteSpace=wrap;rounded=0;" parent="1" vertex="1">
          <mxGeometry x="-930" y="-2290" width="60" height="30" as="geometry" />
        </mxCell>
        <mxCell id="v-Q8v2Fe_cN96iN-oJZp-26" style="edgeStyle=orthogonalEdgeStyle;rounded=0;orthogonalLoop=1;jettySize=auto;html=1;exitX=1;exitY=0.5;exitDx=0;exitDy=0;entryX=0;entryY=0.5;entryDx=0;entryDy=0;" edge="1" parent="1" source="v-Q8v2Fe_cN96iN-oJZp-1" target="v-Q8v2Fe_cN96iN-oJZp-15">
          <mxGeometry relative="1" as="geometry" />
        </mxCell>
        <mxCell id="v-Q8v2Fe_cN96iN-oJZp-1" value="&lt;div&gt;&lt;br&gt;&lt;/div&gt;&lt;div&gt;&lt;br&gt;&lt;/div&gt;&lt;div&gt;The&amp;nbsp;&lt;/div&gt;&lt;div&gt;Beatles&lt;/div&gt;" style="ellipse;whiteSpace=wrap;html=1;aspect=fixed;" vertex="1" parent="1">
          <mxGeometry x="-1320" y="-1090" width="70" height="70" as="geometry" />
        </mxCell>
        <mxCell id="v-Q8v2Fe_cN96iN-oJZp-2" value="&lt;font style=&quot;font-size: 12px;&quot;&gt;1&lt;/font&gt;" style="ellipse;whiteSpace=wrap;html=1;aspect=fixed;" vertex="1" parent="1">
          <mxGeometry x="-1300" y="-1090" width="30" height="30" as="geometry" />
        </mxCell>
        <mxCell id="v-Q8v2Fe_cN96iN-oJZp-31" style="edgeStyle=orthogonalEdgeStyle;rounded=0;orthogonalLoop=1;jettySize=auto;html=1;exitX=1;exitY=0.5;exitDx=0;exitDy=0;entryX=0;entryY=0.5;entryDx=0;entryDy=0;" edge="1" parent="1" source="v-Q8v2Fe_cN96iN-oJZp-3" target="v-Q8v2Fe_cN96iN-oJZp-13">
          <mxGeometry relative="1" as="geometry" />
        </mxCell>
        <mxCell id="v-Q8v2Fe_cN96iN-oJZp-3" value="&lt;div&gt;&lt;br&gt;&lt;/div&gt;&lt;div&gt;&lt;br&gt;&lt;/div&gt;&lt;div&gt;Pink&lt;/div&gt;&lt;div&gt;Floyd&lt;/div&gt;" style="ellipse;whiteSpace=wrap;html=1;aspect=fixed;" vertex="1" parent="1">
          <mxGeometry x="-1320" y="-970" width="70" height="70" as="geometry" />
        </mxCell>
        <mxCell id="v-Q8v2Fe_cN96iN-oJZp-4" value="&lt;font style=&quot;font-size: 12px;&quot;&gt;2&lt;/font&gt;" style="ellipse;whiteSpace=wrap;html=1;aspect=fixed;" vertex="1" parent="1">
          <mxGeometry x="-1300" y="-970" width="30" height="30" as="geometry" />
        </mxCell>
        <mxCell id="v-Q8v2Fe_cN96iN-oJZp-33" style="edgeStyle=orthogonalEdgeStyle;rounded=0;orthogonalLoop=1;jettySize=auto;html=1;exitX=0.5;exitY=1;exitDx=0;exitDy=0;entryX=0.5;entryY=0;entryDx=0;entryDy=0;" edge="1" parent="1" source="v-Q8v2Fe_cN96iN-oJZp-5" target="v-Q8v2Fe_cN96iN-oJZp-8">
          <mxGeometry relative="1" as="geometry" />
        </mxCell>
        <mxCell id="v-Q8v2Fe_cN96iN-oJZp-5" value="&lt;div&gt;&lt;br&gt;&lt;/div&gt;&lt;div&gt;&lt;br&gt;&lt;/div&gt;&lt;div&gt;Led Zeppelin&lt;/div&gt;" style="ellipse;whiteSpace=wrap;html=1;aspect=fixed;" vertex="1" parent="1">
          <mxGeometry x="-1210" y="-1350" width="70" height="70" as="geometry" />
        </mxCell>
        <mxCell id="v-Q8v2Fe_cN96iN-oJZp-6" value="&lt;font style=&quot;font-size: 12px;&quot;&gt;3&lt;/font&gt;" style="ellipse;whiteSpace=wrap;html=1;aspect=fixed;" vertex="1" parent="1">
          <mxGeometry x="-1190" y="-1350" width="30" height="30" as="geometry" />
        </mxCell>
        <mxCell id="v-Q8v2Fe_cN96iN-oJZp-27" style="edgeStyle=orthogonalEdgeStyle;rounded=0;orthogonalLoop=1;jettySize=auto;html=1;exitX=1;exitY=0.5;exitDx=0;exitDy=0;entryX=0;entryY=0.5;entryDx=0;entryDy=0;" edge="1" parent="1" source="v-Q8v2Fe_cN96iN-oJZp-7" target="v-Q8v2Fe_cN96iN-oJZp-21">
          <mxGeometry relative="1" as="geometry" />
        </mxCell>
        <mxCell id="v-Q8v2Fe_cN96iN-oJZp-7" value="&lt;div&gt;&lt;br&gt;&lt;/div&gt;&lt;div&gt;Qeen&lt;/div&gt;" style="ellipse;whiteSpace=wrap;html=1;aspect=fixed;" vertex="1" parent="1">
          <mxGeometry x="-1210" y="-1239" width="70" height="70" as="geometry" />
        </mxCell>
        <mxCell id="v-Q8v2Fe_cN96iN-oJZp-8" value="&lt;font style=&quot;font-size: 12px;&quot;&gt;4&lt;/font&gt;" style="ellipse;whiteSpace=wrap;html=1;aspect=fixed;" vertex="1" parent="1">
          <mxGeometry x="-1190" y="-1239" width="30" height="30" as="geometry" />
        </mxCell>
        <mxCell id="PUz6PSQv2VwOJnI46UMe-3" style="edgeStyle=orthogonalEdgeStyle;rounded=0;orthogonalLoop=1;jettySize=auto;html=1;exitX=0.5;exitY=1;exitDx=0;exitDy=0;entryX=0.5;entryY=0;entryDx=0;entryDy=0;" edge="1" parent="1" source="v-Q8v2Fe_cN96iN-oJZp-9" target="v-Q8v2Fe_cN96iN-oJZp-22">
          <mxGeometry relative="1" as="geometry" />
        </mxCell>
        <mxCell id="v-Q8v2Fe_cN96iN-oJZp-9" value="&lt;div&gt;&lt;br&gt;&lt;/div&gt;&lt;div&gt;Mettalica&lt;/div&gt;" style="ellipse;whiteSpace=wrap;html=1;aspect=fixed;" vertex="1" parent="1">
          <mxGeometry x="-1060" y="-1450" width="70" height="70" as="geometry" />
        </mxCell>
        <mxCell id="v-Q8v2Fe_cN96iN-oJZp-10" value="&lt;font style=&quot;font-size: 12px;&quot;&gt;5&lt;/font&gt;" style="ellipse;whiteSpace=wrap;html=1;aspect=fixed;" vertex="1" parent="1">
          <mxGeometry x="-1040" y="-1450" width="30" height="30" as="geometry" />
        </mxCell>
        <mxCell id="v-Q8v2Fe_cN96iN-oJZp-32" style="edgeStyle=orthogonalEdgeStyle;rounded=0;orthogonalLoop=1;jettySize=auto;html=1;exitX=1;exitY=0.5;exitDx=0;exitDy=0;entryX=0;entryY=0.5;entryDx=0;entryDy=0;" edge="1" parent="1" source="v-Q8v2Fe_cN96iN-oJZp-11" target="v-Q8v2Fe_cN96iN-oJZp-9">
          <mxGeometry relative="1" as="geometry" />
        </mxCell>
        <mxCell id="v-Q8v2Fe_cN96iN-oJZp-11" value="&lt;div&gt;&lt;br&gt;&lt;/div&gt;&lt;div&gt;Nirvana&lt;/div&gt;" style="ellipse;whiteSpace=wrap;html=1;aspect=fixed;" vertex="1" parent="1">
          <mxGeometry x="-1225" y="-1450" width="70" height="70" as="geometry" />
        </mxCell>
        <mxCell id="v-Q8v2Fe_cN96iN-oJZp-12" value="&lt;font style=&quot;font-size: 12px;&quot;&gt;6&lt;/font&gt;" style="ellipse;whiteSpace=wrap;html=1;aspect=fixed;" vertex="1" parent="1">
          <mxGeometry x="-1205" y="-1450" width="30" height="30" as="geometry" />
        </mxCell>
        <mxCell id="v-Q8v2Fe_cN96iN-oJZp-13" value="&lt;div&gt;&lt;br&gt;&lt;/div&gt;&lt;div&gt;Radiohead&lt;/div&gt;" style="ellipse;whiteSpace=wrap;html=1;aspect=fixed;" vertex="1" parent="1">
          <mxGeometry x="-1190" y="-970" width="70" height="70" as="geometry" />
        </mxCell>
        <mxCell id="PUz6PSQv2VwOJnI46UMe-1" style="edgeStyle=orthogonalEdgeStyle;rounded=0;orthogonalLoop=1;jettySize=auto;html=1;exitX=0.5;exitY=0;exitDx=0;exitDy=0;entryX=0.5;entryY=1;entryDx=0;entryDy=0;" edge="1" parent="1" source="v-Q8v2Fe_cN96iN-oJZp-14" target="v-Q8v2Fe_cN96iN-oJZp-15">
          <mxGeometry relative="1" as="geometry" />
        </mxCell>
        <mxCell id="v-Q8v2Fe_cN96iN-oJZp-14" value="&lt;font style=&quot;font-size: 12px;&quot;&gt;7&lt;/font&gt;" style="ellipse;whiteSpace=wrap;html=1;aspect=fixed;" vertex="1" parent="1">
          <mxGeometry x="-1170" y="-970" width="30" height="30" as="geometry" />
        </mxCell>
        <mxCell id="v-Q8v2Fe_cN96iN-oJZp-28" style="edgeStyle=orthogonalEdgeStyle;rounded=0;orthogonalLoop=1;jettySize=auto;html=1;exitX=1;exitY=0.5;exitDx=0;exitDy=0;entryX=0;entryY=0.5;entryDx=0;entryDy=0;" edge="1" parent="1" source="v-Q8v2Fe_cN96iN-oJZp-15" target="v-Q8v2Fe_cN96iN-oJZp-17">
          <mxGeometry relative="1" as="geometry" />
        </mxCell>
        <mxCell id="v-Q8v2Fe_cN96iN-oJZp-15" value="&lt;div&gt;&lt;br&gt;&lt;/div&gt;&lt;div&gt;&lt;br&gt;&lt;/div&gt;&lt;div&gt;David&lt;/div&gt;&lt;div&gt;Bowie&lt;/div&gt;" style="ellipse;whiteSpace=wrap;html=1;aspect=fixed;" vertex="1" parent="1">
          <mxGeometry x="-1190" y="-1090" width="70" height="70" as="geometry" />
        </mxCell>
        <mxCell id="v-Q8v2Fe_cN96iN-oJZp-16" value="&lt;font style=&quot;font-size: 12px;&quot;&gt;8&lt;/font&gt;" style="ellipse;whiteSpace=wrap;html=1;aspect=fixed;" vertex="1" parent="1">
          <mxGeometry x="-1170" y="-1090" width="30" height="30" as="geometry" />
        </mxCell>
        <mxCell id="PUz6PSQv2VwOJnI46UMe-2" style="edgeStyle=orthogonalEdgeStyle;rounded=0;orthogonalLoop=1;jettySize=auto;html=1;exitX=0.5;exitY=1;exitDx=0;exitDy=0;entryX=0.5;entryY=0;entryDx=0;entryDy=0;" edge="1" parent="1" source="v-Q8v2Fe_cN96iN-oJZp-17" target="v-Q8v2Fe_cN96iN-oJZp-20">
          <mxGeometry relative="1" as="geometry" />
        </mxCell>
        <mxCell id="v-Q8v2Fe_cN96iN-oJZp-17" value="&lt;div&gt;&lt;br&gt;&lt;/div&gt;&lt;div&gt;&lt;br&gt;&lt;/div&gt;&lt;div&gt;Michael&lt;/div&gt;&lt;div&gt;Jackson&lt;/div&gt;" style="ellipse;whiteSpace=wrap;html=1;aspect=fixed;" vertex="1" parent="1">
          <mxGeometry x="-1060" y="-1090" width="70" height="70" as="geometry" />
        </mxCell>
        <mxCell id="v-Q8v2Fe_cN96iN-oJZp-18" value="&lt;font style=&quot;font-size: 12px;&quot;&gt;9&lt;/font&gt;" style="ellipse;whiteSpace=wrap;html=1;aspect=fixed;" vertex="1" parent="1">
          <mxGeometry x="-1040" y="-1090" width="30" height="30" as="geometry" />
        </mxCell>
        <mxCell id="v-Q8v2Fe_cN96iN-oJZp-29" style="edgeStyle=orthogonalEdgeStyle;rounded=0;orthogonalLoop=1;jettySize=auto;html=1;exitX=1;exitY=0.5;exitDx=0;exitDy=0;entryX=0;entryY=0.5;entryDx=0;entryDy=0;" edge="1" parent="1" source="v-Q8v2Fe_cN96iN-oJZp-19" target="v-Q8v2Fe_cN96iN-oJZp-23">
          <mxGeometry relative="1" as="geometry" />
        </mxCell>
        <mxCell id="v-Q8v2Fe_cN96iN-oJZp-19" value="&lt;div&gt;&lt;br&gt;&lt;/div&gt;&lt;div&gt;Maddona&lt;/div&gt;" style="ellipse;whiteSpace=wrap;html=1;aspect=fixed;" vertex="1" parent="1">
          <mxGeometry x="-1060" y="-970" width="70" height="70" as="geometry" />
        </mxCell>
        <mxCell id="v-Q8v2Fe_cN96iN-oJZp-20" value="&lt;font style=&quot;font-size: 12px;&quot;&gt;10&lt;/font&gt;" style="ellipse;whiteSpace=wrap;html=1;aspect=fixed;" vertex="1" parent="1">
          <mxGeometry x="-1040" y="-970" width="30" height="30" as="geometry" />
        </mxCell>
        <mxCell id="v-Q8v2Fe_cN96iN-oJZp-30" style="edgeStyle=orthogonalEdgeStyle;rounded=0;orthogonalLoop=1;jettySize=auto;html=1;exitX=0.5;exitY=1;exitDx=0;exitDy=0;entryX=0.5;entryY=0;entryDx=0;entryDy=0;" edge="1" parent="1" source="v-Q8v2Fe_cN96iN-oJZp-21" target="v-Q8v2Fe_cN96iN-oJZp-18">
          <mxGeometry relative="1" as="geometry" />
        </mxCell>
        <mxCell id="v-Q8v2Fe_cN96iN-oJZp-21" value="&lt;div&gt;&lt;br&gt;&lt;/div&gt;&lt;div&gt;&lt;br&gt;&lt;/div&gt;&lt;div&gt;Elton&lt;/div&gt;&lt;div&gt;Jhon&lt;/div&gt;" style="ellipse;whiteSpace=wrap;html=1;aspect=fixed;" vertex="1" parent="1">
          <mxGeometry x="-1060" y="-1239" width="70" height="70" as="geometry" />
        </mxCell>
        <mxCell id="v-Q8v2Fe_cN96iN-oJZp-22" value="&lt;font style=&quot;font-size: 12px;&quot;&gt;11&lt;/font&gt;" style="ellipse;whiteSpace=wrap;html=1;aspect=fixed;" vertex="1" parent="1">
          <mxGeometry x="-1040" y="-1239" width="30" height="30" as="geometry" />
        </mxCell>
        <mxCell id="v-Q8v2Fe_cN96iN-oJZp-23" value="&lt;div&gt;&lt;br&gt;&lt;/div&gt;&lt;div&gt;Eminem&lt;/div&gt;" style="ellipse;whiteSpace=wrap;html=1;aspect=fixed;" vertex="1" parent="1">
          <mxGeometry x="-935" y="-970" width="70" height="70" as="geometry" />
        </mxCell>
        <mxCell id="v-Q8v2Fe_cN96iN-oJZp-24" value="&lt;font style=&quot;font-size: 12px;&quot;&gt;12&lt;/font&gt;" style="ellipse;whiteSpace=wrap;html=1;aspect=fixed;" vertex="1" parent="1">
          <mxGeometry x="-915" y="-970" width="30" height="30" as="geometry" />
        </mxCell>
      </root>
    </mxGraphModel>
  </diagram>
</mxfile>
